<?xml version="1.0" encoding="UTF-8" standalone="no"?>
<svg
   xmlns:dc="http://purl.org/dc/elements/1.1/"
   xmlns:cc="http://creativecommons.org/ns#"
   xmlns:rdf="http://www.w3.org/1999/02/22-rdf-syntax-ns#"
   xmlns:svg="http://www.w3.org/2000/svg"
   xmlns="http://www.w3.org/2000/svg"
   xmlns:sodipodi="http://sodipodi.sourceforge.net/DTD/sodipodi-0.dtd"
   xmlns:inkscape="http://www.inkscape.org/namespaces/inkscape"
   viewBox="0 0 64 64"
   enable-background="new 0 0 64 64"
   version="1.1"
   id="svg6"
   sodipodi:docname="phoenix-logo_blue_font.svg"
   inkscape:version="0.92.1 r"
   inkscape:export-filename="/home/syui/phoenix-logo_blue_font.svg.png"
   inkscape:export-xdpi="96"
   inkscape:export-ydpi="96">
  <metadata
     id="metadata12">
    <rdf:RDF>
      <cc:Work
         rdf:about="">
        <dc:format>image/svg+xml</dc:format>
        <dc:type
           rdf:resource="http://purl.org/dc/dcmitype/StillImage" />
      </cc:Work>
    </rdf:RDF>
  </metadata>
  <defs
     id="defs10" />
  <sodipodi:namedview
     pagecolor="#ffffff"
     bordercolor="#666666"
     borderopacity="1"
     objecttolerance="10"
     gridtolerance="10"
     guidetolerance="10"
     inkscape:pageopacity="0"
     inkscape:pageshadow="2"
     inkscape:window-width="1362"
     inkscape:window-height="726"
     id="namedview8"
     showgrid="false"
     inkscape:zoom="3.6875"
     inkscape:cx="-75.887884"
     inkscape:cy="19.806442"
     inkscape:window-x="0"
     inkscape:window-y="16"
     inkscape:window-maximized="0"
     inkscape:current-layer="svg6"
     inkscape:snap-bbox="true"
     inkscape:snap-global="true" />
  <path
     style="fill:#80b3ff;stroke-width:0.21000001"
     d="m 11.887848,52.652394 c 0.299171,-0.256221 1.362296,-1.162271 2.3625,-2.013433 1.000204,-0.851177 1.818542,-1.630802 1.818542,-1.732515 0,-0.391971 -0.500109,-0.148995 -1.564132,0.760079 -1.133181,0.968089 -3.675672,2.41501 -4.243617,2.41501 -0.6799748,0 -0.06898,-0.541138 1.881684,-1.666665 1.999289,-1.153545 3.727237,-2.592182 3.448399,-2.871004 -0.07796,-0.07796 -0.54569,0.188905 -1.0395,0.59294 -1.772583,1.450339 -3.24839,2.265086 -4.090243,2.258093 -0.7717498,-0.0063 -0.7360918,-0.03875 1.099964,-0.997494 1.946102,-1.016222 3.684429,-2.192463 4.386249,-2.967978 0.595586,-0.658129 0.179282,-0.529058 -1.070984,0.332042 -0.614864,0.42347 -1.169784,0.71809 -1.233178,0.654696 -0.102532,-0.102533 1.234721,-1.128881 4.272377,-3.27893 0.54339,-0.384599 1.01422,-0.770442 1.046287,-0.857414 0.03213,-0.08694 -0.271341,-0.705553 -0.674241,-1.374644 -2.653371,-4.406362 -3.195754,-10.503313 -1.371432,-15.416132 1.856753,-5.00012 5.939766,-9.083135 10.939887,-10.939887 3.540333,-1.314668 8.030122,-1.428131 11.673743,-0.294997 l 1.096247,0.340924 1.178163,-1.07678 c 1.656774,-1.514189 1.938195,-1.46905 1.02701,0.164777 l -0.537311,0.963443 0.875448,-0.945 c 0.888095,-0.958671 1.822937,-2.61135 2.286617,-4.042505 0.272128,-0.8399476 0.518206,-0.9944706 0.725098,-0.455317 0.253055,0.659453 0.110723,1.098657 -0.90238,2.784301 -0.566433,0.942432 -0.947709,1.713521 -0.847319,1.713521 0.551675,0 1.682053,-1.394678 2.176965,-2.685974 0.97272,-2.5379386 1.800209,-3.4401296 1.800209,-1.962749 0,0.657642 -0.862391,2.107397 -2.007652,3.375068 -0.75926,0.840404 -0.84839,1.23754 -0.223997,0.997935 0.377008,-0.144585 2.973963,-3.141022 3.549294,-4.095141 0.304054,-0.5042516 0.482943,-0.6325356 0.649609,-0.4658846 0.372551,0.3725656 -0.619589,1.9803416 -2.024962,3.2814646 -0.687582,0.636583 -1.200228,1.207348 -1.139213,1.268363 0.201899,0.201899 1.074512,-0.38934 2.412097,-1.634314 1.139985,-1.061046 1.934824,-1.51756 1.934824,-1.111257 0,0.283185 -1.637291,2.047673 -2.25751,2.432871 -1.0289,0.639009 -0.819709,0.907735 0.228454,0.293469 1.103791,-0.646868 1.609051,-0.683502 1.609051,-0.116707 0,0.278287 -0.244708,0.519435 -0.735005,0.724295 -0.972767,0.406445 -1.025829,1.176667 -0.105053,1.524254 0.3465,0.130725 0.63,0.348705 0.63,0.484281 0,0.135607 -0.2835,0.353493 -0.63,0.484281 -0.702387,0.265119 -0.792209,0.458545 -0.300525,0.647214 0.495605,0.190182 0.179061,0.958971 -0.718153,1.74414 -0.64964,0.568528 -0.691205,0.651892 -0.272948,0.547549 0.490534,-0.122378 0.4914,-0.119228 0.150255,0.540445 -0.339365,0.656255 -0.3336,0.679581 0.524853,2.124565 1.143498,1.924807 1.99551,4.053498 2.393386,5.979739 0.405547,1.963379 0.410398,5.440727 0.0095,7.329546 -1.11343,5.255397 -4.512958,9.862193 -9.137095,12.381957 -2.893212,1.576559 -5.486796,2.233271 -8.82,2.233271 -3.135951,0 -5.651919,-0.595161 -8.397459,-1.986437 -1.280616,-0.648916 -1.330764,-0.648963 -1.978452,-0.0013 -0.288744,0.288761 -0.688574,0.525011 -0.888504,0.525011 -0.199931,0 -0.581034,0.204356 -0.846909,0.454119 -0.522176,0.490566 -1.910538,0.593555 -2.177548,0.161532 -0.215996,-0.349492 -0.977618,0.194056 -1.273781,0.909059 -0.240912,0.581616 -0.759622,0.99529 -1.24803,0.99529 -0.238534,0 -0.227997,-0.08694 0.163454,-1.349004 0.06899,-0.222201 -0.49307,0.226674 -1.248865,0.997495 -1.27742,1.302809 -2.053895,1.740155 -2.053895,1.156838 0,-0.134505 0.567,-0.835128 1.26,-1.556825 1.112943,-1.159011 1.573141,-1.983775 1.1025,-1.975853 -0.08663,0.0013 -0.601098,0.508504 -1.143276,1.126786 -1.074497,1.225335 -3.058194,2.65449 -3.669813,2.643921 -0.326372,-0.0063 -0.302274,-0.07702 0.159531,-0.4725 z m 25.679083,-5.603976 c 0.888363,-0.227194 2.036286,-0.599366 2.550949,-0.827017 3.505997,-1.550871 6.763255,-5.081107 7.768829,-8.419871 l 0.158114,-0.52501 -0.410082,0.501149 c -0.312008,0.38126 -0.617794,0.501133 -1.278428,0.501133 -0.523672,0 -0.851272,0.09277 -0.825379,0.233856 0.02835,0.153878 -0.37748,0.219256 -1.187534,0.191095 -1.027073,-0.03576 -1.409263,-0.165879 -2.311816,-0.7875 -0.594736,-0.409594 -1.209789,-0.744723 -1.366785,-0.744723 -0.157028,0 -0.615353,-0.289658 -1.018569,-0.643687 -0.429912,-0.377464 -0.864974,-0.593082 -1.051911,-0.521356 -0.17536,0.06725 -0.435723,-0.03764 -0.578686,-0.233084 -0.230801,-0.315646 -0.284933,-0.274917 -0.483635,0.36384 -0.123008,0.395609 -0.28591,1.120912 -0.361888,1.611777 -0.124268,0.802683 -0.28895,0.995494 -0.78372,0.917374 -0.08663,-0.01418 -0.1575,0.199805 -0.1575,0.474422 0,0.694244 -0.493369,1.032617 -1.35839,0.931628 -0.653594,-0.07639 -0.768726,-0.0126 -1.048856,0.577395 -0.541894,1.141969 -3.239161,3.847756 -4.089645,4.102576 -0.475855,0.142537 -0.894584,0.45771 -1.112391,0.837222 -0.336782,0.586814 -0.332766,0.617574 0.112455,0.859746 1.817566,0.988533 6.160518,1.28301 8.834821,0.599035 z M 23.757489,38.424663 c 1.958008,-1.986736 4.071406,-4.784251 4.071406,-5.389351 0,-0.15057 -0.140962,-0.273782 -0.313189,-0.273782 -0.172242,0 -0.72954,-0.317819 -1.238438,-0.706261 -0.745983,-0.569426 -1.243856,-0.753654 -2.56966,-0.950844 -0.904412,-0.134505 -1.726184,-0.326355 -1.826133,-0.426321 -0.189504,-0.189488 1.509621,-0.899797 2.79742,-1.169421 0.404255,-0.08458 0.887355,-0.287989 1.073567,-0.451884 0.658713,-0.579773 1.671453,-0.710907 3.554303,-0.46023 1.724121,0.229556 1.838923,0.21946 2.4235,-0.213051 0.337491,-0.2497 0.944385,-0.949677 1.348625,-1.555501 0.404255,-0.605824 1.378566,-1.840907 2.165137,-2.744658 1.982877,-2.278253 3.601395,-4.945295 3.22782,-5.318885 -0.309282,-0.309283 -2.724482,-0.696686 -4.361868,-0.699663 -9.445842,-0.01716 -16.582608,9.084128 -14.256285,18.180619 0.380472,1.487714 1.516677,4.286095 1.740264,4.286095 0.04788,0 1.021514,-0.948087 2.163531,-2.106862 z M 48.132346,36.71215 c -0.0671,-0.167517 -0.116865,-0.11781 -0.126787,0.126945 -0.0095,0.221366 0.04048,0.345397 0.11025,0.275625 0.06977,-0.06978 0.07717,-0.250913 0.01653,-0.402507 z m 0.696544,-5.177025 c 0,-1.497479 -1.365588,-5.581454 -2.06692,-6.181418 -0.307676,-0.263214 -0.432369,-0.216216 -1.074402,0.405027 -0.399483,0.386536 -0.612108,0.702796 -0.4725,0.702796 0.491006,0 0.246346,0.879622 -0.42799,1.538649 -0.408744,0.399483 -0.682086,0.876614 -0.682495,1.191346 -6.3e-4,0.427864 -0.11718,0.537721 -0.630693,0.593759 -0.590735,0.06441 -1.784995,0.95801 -1.784995,1.335537 0,0.09387 0.197852,0.170699 0.439661,0.170699 0.263041,0 0.483777,0.168714 0.549486,0.420005 0.103478,0.395451 0.286446,0.420005 3.130344,0.420005 h 3.020504 z"
     id="path81"
     inkscape:connector-curvature="0" />
</svg>
